# Blender 3.3.1
# www.blender.org
mtllib House.mtl
o Cube
v 1.000000 0.975698 -1.190744
v 1.000000 -1.057868 -1.000000
v 1.000000 0.975698 1.190744
v 1.000000 -1.057868 1.000000
v -1.000000 0.975698 -1.190744
v -1.000000 -1.057868 -1.000000
v -1.000000 0.975698 1.190744
v -1.000000 -1.057868 1.000000
v -1.000000 -1.057868 0.000000
v 1.000000 2.471431 0.000000
v -1.000000 2.471431 0.000000
v 1.000000 -1.057868 0.000000
v 0.861154 -1.057868 1.199929
v 0.861154 1.000000 1.199929
v 0.861154 -1.057868 0.717954
v 0.861154 1.241601 0.717954
v 1.343128 -1.057868 1.199929
v 1.343128 1.000000 1.199929
v 1.343128 -1.057868 0.717954
v 1.343128 1.241601 0.717954
v 0.861154 -1.057868 -0.717489
v 0.861154 1.241601 -0.717489
v 0.861154 -1.057868 -1.199463
v 0.861154 1.000000 -1.199463
v 1.343128 -1.057868 -0.717489
v 1.343128 1.241601 -0.717489
v 1.343128 -1.057868 -1.199463
v 1.343128 1.000000 -1.199463
v -1.205279 -1.057868 -0.717489
v -1.205279 1.319947 -0.717489
v -1.205279 -1.057868 -1.199463
v -1.205279 1.000000 -1.199463
v -0.723305 -1.057868 -0.717489
v -0.723305 1.319947 -0.717489
v -0.723305 -1.057868 -1.199463
v -0.723305 1.000000 -1.199463
v -1.205279 -1.057868 1.231877
v -1.205279 1.000000 1.231877
v -1.205279 -1.057868 0.749903
v -1.205279 1.319947 0.749903
v -0.723305 -1.057868 1.231877
v -0.723305 1.000000 1.231877
v -0.723305 -1.057868 0.749903
v -0.723305 1.319947 0.749903
v 0.755089 0.796102 1.615896
v 0.755089 2.669810 -0.015539
v 0.755089 0.464155 1.266452
v 0.755089 2.029146 -0.000719
v 1.454702 0.796102 1.615896
v 1.454702 2.669810 -0.015539
v 1.454702 0.464155 1.266452
v 1.454702 2.029146 -0.000719
v 1.104896 0.630128 1.441174
v 1.454702 0.496949 -1.242702
v 0.755089 0.828305 -1.589519
v 0.755089 0.496949 -1.242702
v 1.454702 0.828305 -1.589519
v 1.104896 0.662627 -1.416110
v -1.308992 0.796102 1.615896
v -1.308992 2.669810 -0.015539
v -1.308992 0.464155 1.266452
v -1.308992 2.029146 -0.000719
v -0.609379 0.796102 1.615896
v -0.609379 2.669810 -0.015539
v -0.609379 0.464155 1.266452
v -0.609379 2.029146 -0.000719
v -0.959186 0.630128 1.441174
v -0.609379 0.496949 -1.242702
v -1.308992 0.828305 -1.589519
v -1.308992 0.496949 -1.242702
v -0.609379 0.828305 -1.589519
v -0.959186 0.662627 -1.416110
v 0.862390 0.644509 -0.786957
v -0.941341 0.628852 -0.786957
v 0.862390 0.644509 -1.268931
v -0.692586 0.631011 -1.268931
v 0.859019 1.006058 -0.786957
v -0.944712 0.990401 -0.786957
v 0.859019 1.006058 -1.268931
v -0.695958 0.992560 -1.268931
v 0.862390 0.644509 1.243521
v -0.941341 0.628852 1.243521
v 0.862390 0.644509 0.761546
v -0.692586 0.631011 0.761546
v 0.859019 1.006058 1.243521
v -0.944712 0.990401 1.243521
v 0.859019 1.006058 0.761546
v -0.695958 0.992560 0.761546
v -1.430560 -1.673962 1.430560
v -1.321098 -1.043675 1.321098
v -1.430560 -1.673962 -1.430560
v -1.321098 -1.027225 -1.321098
v 1.430560 -1.673962 1.430560
v 1.321098 -1.027225 1.321098
v 1.430560 -1.673962 -1.430560
v 1.321098 -0.942992 -1.321098
v -1.737493 -1.673962 0.000000
v -1.604546 -1.043675 0.000000
v 1.737493 -1.673962 0.000000
v 1.604546 -1.027225 0.000000
v 0.000000 -1.673962 -1.737493
v 0.000000 -1.027225 -1.604546
v 0.000000 -1.673962 1.737493
v 0.000000 -1.043675 1.604546
v 0.000000 -0.829610 0.000000
v -0.681264 -2.649755 0.681264
v -1.430560 -1.673962 1.430560
v -1.430560 -1.673962 -1.430560
v 1.430560 -1.673962 1.430560
v 1.430560 -1.673962 -1.430560
v -1.737493 -1.673962 0.000000
v 1.737493 -1.673962 0.000000
v 0.000000 -1.673962 -1.737493
v 0.000000 -1.673962 1.737493
v -0.681264 -2.649755 -0.681264
v 0.681264 -2.649755 0.681264
v 0.681264 -2.649755 -0.681264
v -0.827432 -2.649755 0.000000
v 0.827432 -2.649755 0.000000
v 0.000000 -2.649755 -0.827432
v 0.000000 -2.649755 0.827432
v 0.000000 -3.085912 0.000000
v 0.954735 -1.049987 0.512285
v 0.954735 -0.222537 0.512285
v 0.954735 -1.049987 -0.512285
v 0.954735 -0.222537 -0.512285
v 1.187100 -1.049987 0.512285
v 1.187100 -0.222537 0.512285
v 1.187100 -1.049987 -0.512285
v 1.187100 -0.222537 -0.512285
v 0.954735 0.475795 0.512285
v 0.954735 0.475795 -0.512285
v 1.187100 0.475795 -0.512285
v 1.187100 0.475795 0.512285
v 0.954735 0.677745 0.423530
v 0.954735 0.677745 -0.423530
v 1.187100 0.677745 -0.423530
v 1.187100 0.677745 0.423530
v 0.954735 0.831538 0.218650
v 0.954735 0.831538 -0.218650
v 1.187100 0.831538 -0.218650
v 1.187100 0.831538 0.218650
v 0.954735 0.890171 0.000000
v 1.187100 0.890171 0.000000
v 1.187100 -0.475177 -0.337783
v 1.187100 -1.012918 -0.337783
v 1.187100 -1.012918 0.337783
v 1.187100 -0.475177 0.337783
v 1.187100 0.380526 -0.337783
v 1.187100 0.380526 0.337783
v 1.187100 0.511769 -0.279261
v 1.187100 0.511769 0.279261
v 1.187100 0.611715 -0.144170
v 1.187100 0.611715 0.144170
v 1.187100 0.649820 0.000000
v 1.076418 -0.475177 -0.337783
v 1.076418 -1.012918 -0.337783
v 1.076418 -1.012918 0.337783
v 1.076418 -0.475177 0.337783
v 1.076418 0.380526 -0.337783
v 1.076418 0.380526 0.337783
v 1.076418 0.511769 -0.279261
v 1.076418 0.511769 0.279261
v 1.076418 0.611715 -0.144170
v 1.076418 0.611715 0.144170
v 1.076418 0.649820 0.000000
vn -0.0000 0.6228 0.7824
vn -0.0000 -0.0934 0.9956
vn -1.0000 -0.0000 -0.0000
vn 1.0000 -0.0000 -0.0000
vn -0.0000 -0.0934 -0.9956
vn -0.0000 0.6228 -0.7824
vn -0.0000 -0.0000 -1.0000
vn -0.0000 -0.0000 1.0000
vn -0.0000 -0.6293 -0.7772
vn -0.0000 0.6567 0.7542
vn -0.0000 -0.7250 0.6887
vn -0.0000 -0.6297 0.7768
vn -0.0000 0.6497 -0.7602
vn -0.0000 -0.7230 -0.6908
vn 0.0087 -1.0000 -0.0000
vn -0.0087 1.0000 -0.0000
vn -0.9583 0.1994 -0.2044
vn 0.2007 0.1852 -0.9620
vn 0.9586 0.1971 0.2057
vn -0.2055 0.2020 0.9576
vn -0.0000 1.0000 -0.0000
vn -0.0805 0.9935 0.0805
vn -0.0795 0.9944 -0.0693
vn 0.9620 0.1852 -0.2007
vn -0.9576 0.2020 0.2055
vn 0.0428 0.9982 -0.0428
vn 0.0693 0.9944 0.0795
vn 0.2044 0.1994 0.9583
vn -0.2057 0.1971 -0.9586
vn 0.1550 -0.6738 0.7225
vn 0.7225 -0.6738 0.1550
vn 0.1550 -0.6738 -0.7225
vn -0.7225 -0.6738 0.1550
vn 0.2916 -0.9110 0.2916
vn 0.2916 -0.9110 -0.2916
vn -0.2916 -0.9110 -0.2916
vn -0.2916 -0.9110 0.2916
vn -0.1550 -0.6738 -0.7225
vn -0.1550 -0.6738 0.7225
vn -0.7225 -0.6738 -0.1550
vn 0.7225 -0.6738 -0.1550
vn -0.0000 0.4023 -0.9155
vn -0.0000 0.4023 0.9155
vn -0.0000 0.9659 0.2590
vn -0.0000 0.7998 0.6003
vn -0.0000 0.7998 -0.6003
vn -0.0000 0.9659 -0.2590
vn -0.0000 -0.9668 -0.2555
vn -0.0000 -0.4073 -0.9133
vn -0.0000 -0.8039 -0.5948
vn -0.0000 -0.9668 0.2555
vn -0.0000 -0.8039 0.5948
vn -0.0000 -0.4073 0.9133
vt 0.790000 0.968889
vt 0.738750 0.500000
vt -0.000000 0.002222
vt 0.386250 0.968889
vt 0.273750 0.500000
vt -0.000000 0.007778
vt 0.841250 0.752222
vt 0.738750 0.750000
vt 0.375000 0.750000
vt 0.273750 0.750000
vt 0.764598 0.834092
vt 0.790000 0.718889
vt 0.526250 0.002222
vt 0.320796 0.834092
vt 0.386250 0.718889
vt 0.526250 0.007778
vt 0.841250 1.002222
vt 0.764598 0.558130
vt 0.375000 1.000000
vt 0.320796 0.558130
vt 0.320796 0.696111
vt 0.916250 0.625000
vt -0.000000 0.310556
vt 0.866704 0.696111
vt 0.526250 0.310556
vt 0.273750 0.625000
vt 0.062434 0.514180
vt 0.062434 0.894709
vt 0.157566 0.514180
vt 0.157566 0.894709
vt 0.062434 0.609312
vt 0.157566 0.609312
vt 0.062434 0.799577
vt 0.157566 0.799577
vt 0.062434 0.704444
vt 0.157566 0.704444
vt 0.062434 0.514180
vt 0.062434 0.894709
vt 0.157566 0.514180
vt 0.157566 0.894709
vt 0.062434 0.609312
vt 0.157566 0.609312
vt 0.062434 0.799577
vt 0.157566 0.799577
vt 0.062434 0.704444
vt 0.157566 0.704444
vt 0.062434 0.514180
vt 0.062434 0.894709
vt 0.157566 0.514180
vt 0.157566 0.894709
vt 0.062434 0.609312
vt 0.157566 0.609312
vt 0.062434 0.799577
vt 0.157566 0.799577
vt 0.062434 0.704444
vt 0.157566 0.704444
vt 0.062434 0.514180
vt 0.062434 0.894709
vt 0.157566 0.514180
vt 0.157566 0.894709
vt 0.062434 0.609312
vt 0.157566 0.609312
vt 0.062434 0.799577
vt 0.157566 0.799577
vt 0.062434 0.704444
vt 0.157566 0.704444
vt 0.062434 0.894709
vt 0.062434 0.514180
vt 0.157566 0.514180
vt 0.157566 0.894709
vt 0.129787 0.894709
vt 0.129787 0.514180
vt 0.062434 0.609312
vt 0.157566 0.609312
vt 0.129787 0.609312
vt 0.062434 0.799577
vt 0.157566 0.799577
vt 0.129787 0.799577
vt 0.062434 0.704444
vt 0.129787 0.704444
vt 0.157566 0.704444
vt 0.062434 0.704444
vt 0.062434 0.799577
vt 0.062434 0.609312
vt 0.062434 0.514180
vt 0.129787 0.704444
vt 0.157566 0.704444
vt 0.129787 0.894709
vt 0.129787 0.514180
vt 0.157566 0.514180
vt 0.157566 0.894709
vt 0.129787 0.609312
vt 0.157566 0.609312
vt 0.129787 0.799577
vt 0.157566 0.799577
vt 0.157566 0.609312
vt 0.157566 0.894709
vt 0.157566 0.704444
vt 0.157566 0.799577
vt 0.062434 0.894709
vt 0.062434 0.514180
vt 0.157566 0.894709
vt 0.157566 0.514180
vt 0.062434 0.609312
vt 0.157566 0.609312
vt 0.062434 0.799577
vt 0.157566 0.799577
vt 0.062434 0.704444
vt 0.157566 0.704444
vt 0.062434 0.704444
vt 0.062434 0.799577
vt 0.062434 0.609312
vt 0.062434 0.514180
vt 0.157566 0.704444
vt 0.157566 0.514180
vt 0.157566 0.894709
vt 0.157566 0.609312
vt 0.157566 0.799577
vt 0.157566 0.609312
vt 0.157566 0.894709
vt 0.157566 0.704444
vt 0.157566 0.799577
vt 0.062434 0.514180
vt 0.062434 0.894709
vt 0.157566 0.514180
vt 0.157566 0.894709
vt 0.062434 0.609312
vt 0.157566 0.609312
vt 0.062434 0.799577
vt 0.157566 0.799577
vt 0.062434 0.704444
vt 0.157566 0.704444
vt 0.062434 0.514180
vt 0.062434 0.894709
vt 0.157566 0.514180
vt 0.157566 0.894709
vt 0.062434 0.609312
vt 0.157566 0.609312
vt 0.062434 0.799577
vt 0.157566 0.799577
vt 0.062434 0.704444
vt 0.157566 0.704444
vt 0.375000 1.000000
vt 0.375000 0.499149
vt 0.625000 1.000000
vt 0.875000 0.750000
vt 0.625000 0.499149
vt 0.375000 0.749149
vt 0.875000 0.500000
vt 0.625000 0.749149
vt 0.375000 0.750000
vt 0.625000 0.750000
vt 0.375000 0.500000
vt 0.625000 0.500000
vt 0.375000 0.624149
vt 0.875000 0.625000
vt 0.625000 0.624149
vt 0.375000 0.625000
vt 0.625000 0.625000
vt 0.375000 0.624575
vt 0.750000 0.500000
vt 0.625000 0.624575
vt 0.375000 0.875000
vt 0.750000 0.750000
vt 0.625000 0.875000
vt 0.750000 0.625000
vt 0.388018 0.499149
vt 0.625031 0.750000
vt 0.388018 1.000000
vt 0.375000 0.499149
vt 0.375000 1.000000
vt 0.583750 0.499149
vt 0.582893 1.000000
vt 0.375000 0.749149
vt 0.582429 0.749149
vt 0.388018 0.749149
vt 0.388018 0.750000
vt 0.390604 0.750000
vt 0.375000 0.750000
vt 0.582214 0.500000
vt 0.375000 0.500000
vt 0.394321 0.500000
vt 0.583786 0.624149
vt 0.375000 0.624149
vt 0.388018 0.624149
vt 0.388018 0.625000
vt 0.375000 0.625000
vt 0.394482 0.625000
vt 0.581929 0.624575
vt 0.375000 0.624575
vt 0.582393 0.624575
vt 0.375000 0.875000
vt 0.390280 0.875000
vt 0.582821 0.875000
vt 0.625031 0.500000
vt 0.388018 0.749149
vt 0.582714 0.749149
vt 0.583393 0.750000
vt 0.581964 0.750000
vt 0.375000 0.750000
vt 0.388018 0.500000
vt 0.375000 0.500000
vt 0.581286 0.500000
vt 0.388018 0.624149
vt 0.625031 0.625000
vt 0.582750 0.624149
vt 0.581929 0.625000
vt 0.375000 0.625000
vt 0.581214 0.625000
vt 0.391088 0.624575
vt 0.500016 0.500000
vt 0.388018 0.624575
vt 0.583428 0.875000
vt 0.500016 0.750000
vt 0.388018 0.875000
vt 0.500016 0.625000
vt 0.039182 0.958829
vt 0.000000 0.000000
vt 0.170818 0.958829
vt 0.039182 0.563919
vt 0.000000 0.000000
vt 0.170818 0.563919
vt 0.039182 0.827192
vt 0.170818 0.827192
vt 0.039182 0.695556
vt 0.170818 0.695556
vt 0.000000 0.000000
vt 0.170818 0.958829
vt 0.170818 0.563919
vt 0.000000 0.000000
vt 0.170818 0.695556
vt 0.170818 0.827192
vt 0.000000 0.000000
vt 0.170818 0.958829
vt 0.000000 0.000000
vt 0.170818 0.563919
vt 0.170818 0.695556
vt 0.170818 0.827192
vt 0.170818 0.958829
vt 0.000000 0.000000
vt 0.170818 0.563919
vt 0.000000 0.000000
vt 0.170818 0.695556
vt 0.170818 0.827192
vt 0.170818 0.958829
vt 0.170818 0.563919
vt 0.000000 0.000000
vt 0.170818 0.827192
vt 0.170818 0.695556
vt 0.170818 0.695556
vt 0.039182 0.695556
vt 0.000000 0.000000
vt 0.039182 0.827192
vt 0.000000 0.000000
vt 0.170818 0.827192
vt 0.170818 0.695556
vt 0.170818 0.827192
vt 0.170818 0.695556
vt 0.170818 0.827192
vt 0.170818 0.695556
vt 0.170818 0.827192
vt 0.170818 0.827192
vt 0.170818 0.695556
vt 0.149771 0.000288
vt 0.170818 0.695556
vt 0.003253 0.002052
vt 0.039182 0.695556
vt 0.000000 0.000000
vt 0.039182 0.827192
vt 0.003253 0.318885
vt 0.000000 0.000000
vt 0.170818 0.827192
vt 0.152748 0.320649
vt 0.368039 0.001170
vt 0.170818 0.695556
vt 0.170818 0.827192
vt 0.362086 0.322413
vt 0.451377 0.024981
vt 0.170818 0.695556
vt 0.170818 0.827192
vt 0.447409 0.295074
vt 0.489078 0.085831
vt 0.170818 0.695556
vt 0.170818 0.827192
vt 0.489078 0.230697
vt 0.170818 0.827192
vt 0.511897 0.161027
vt 0.170818 0.695556
s 0
usemtl Material
f 10/23/1 11/25/1 7/16/1 3/6/1
f 4/9/2 3/7/2 7/17/2 8/19/2
f 9/21/3 11/24/3 5/11/3 6/14/3
f 12/26/4 10/22/4 3/8/4 4/10/4
f 6/15/5 5/12/5 1/1/5 2/4/5
f 2/5/4 1/2/4 10/22/4 12/26/4
f 8/20/3 7/18/3 11/24/3 9/21/3
f 1/3/6 5/13/6 11/25/6 10/23/6
f 13/27/3 14/29/3 16/32/3 15/31/3
f 15/31/7 16/32/7 20/36/7 19/35/7
f 19/35/4 20/36/4 18/34/4 17/33/4
f 17/33/8 18/34/8 14/30/8 13/28/8
f 21/37/3 22/39/3 24/42/3 23/41/3
f 23/41/7 24/42/7 28/46/7 27/45/7
f 27/45/4 28/46/4 26/44/4 25/43/4
f 25/43/8 26/44/8 22/40/8 21/38/8
f 29/47/3 30/49/3 32/52/3 31/51/3
f 31/51/7 32/52/7 36/56/7 35/55/7
f 35/55/4 36/56/4 34/54/4 33/53/4
f 33/53/8 34/54/8 30/50/8 29/48/8
f 37/57/3 38/59/3 40/62/3 39/61/3
f 39/61/7 40/62/7 44/66/7 43/65/7
f 43/65/4 44/66/4 42/64/4 41/63/4
f 41/63/8 42/64/8 38/60/8 37/58/8
f 45/68/3 46/69/3 48/74/3 47/73/3
f 47/73/9 48/74/9 52/81/9 51/79/9
f 51/79/4 52/81/4 50/77/4 49/76/4
f 49/76/10 50/77/10 46/70/10 45/67/10
f 51/79/11 49/76/11 53/82/11
f 49/76/11 45/67/11 53/83/11
f 47/73/11 51/79/11 53/84/11
f 45/68/11 47/73/11 53/85/11
f 50/78/4 52/80/4 54/86/4 57/94/4
f 52/81/12 48/74/12 56/93/12 54/87/12
f 46/71/13 50/78/13 57/94/13 55/88/13
f 48/75/3 46/72/3 55/89/3 56/92/3
f 56/93/14 55/90/14 58/96/14
f 55/91/14 57/95/14 58/97/14
f 54/87/14 56/93/14 58/98/14
f 57/95/14 54/87/14 58/99/14
f 59/101/3 60/103/3 62/105/3 61/104/3
f 61/104/9 62/105/9 66/109/9 65/108/9
f 65/108/4 66/109/4 64/107/4 63/106/4
f 63/106/10 64/107/10 60/102/10 59/100/10
f 65/108/11 63/106/11 67/110/11
f 63/106/11 59/100/11 67/111/11
f 61/104/11 65/108/11 67/112/11
f 59/101/11 61/104/11 67/113/11
f 64/107/4 66/109/4 68/114/4 71/118/4
f 66/109/12 62/105/12 70/117/12 68/114/12
f 60/102/13 64/107/13 71/118/13 69/116/13
f 62/105/3 60/103/3 69/115/3 70/117/3
f 70/117/14 69/115/14 72/119/14
f 69/116/14 71/118/14 72/120/14
f 68/114/14 70/117/14 72/121/14
f 71/118/14 68/114/14 72/122/14
f 73/123/15 74/125/15 76/128/15 75/127/15
f 75/127/7 76/128/7 80/132/7 79/131/7
f 79/131/16 80/132/16 78/130/16 77/129/16
f 77/129/8 78/130/8 74/126/8 73/124/8
f 81/133/15 82/135/15 84/138/15 83/137/15
f 83/137/7 84/138/7 88/142/7 87/141/7
f 87/141/16 88/142/16 86/140/16 85/139/16
f 85/139/8 86/140/8 82/136/8 81/134/8
f 97/155/17 98/157/17 92/150/17 91/148/17
f 101/160/18 102/162/18 96/154/18 95/153/18
f 99/158/19 100/159/19 94/152/19 93/151/19
f 103/163/20 104/165/20 90/145/20 89/143/20
f 89/144/21 97/155/21 111/184/21 107/170/21
f 105/166/22 98/156/22 90/146/22 104/164/22
f 102/161/23 92/149/23 98/156/23 105/166/23
f 103/163/21 89/143/21 107/171/21 114/192/21
f 95/153/24 96/154/24 100/159/24 99/158/24
f 89/144/25 90/147/25 98/157/25 97/155/25
f 91/148/21 101/160/21 113/190/21 108/174/21
f 96/154/26 102/161/26 105/166/26 100/159/26
f 100/159/27 105/166/27 104/164/27 94/152/27
f 93/151/21 103/163/21 114/192/21 109/179/21
f 93/151/28 94/152/28 104/165/28 103/163/28
f 91/148/29 92/150/29 102/162/29 101/160/29
f 109/177/30 114/193/30 121/213/30 116/198/30
f 112/186/31 109/178/31 116/199/31 119/207/31
f 113/189/32 110/180/32 117/201/32 120/210/32
f 107/172/33 111/183/33 118/204/33 106/167/33
f 101/160/21 95/153/21 110/181/21 113/190/21
f 95/153/21 99/158/21 112/187/21 110/181/21
f 99/158/21 93/151/21 109/179/21 112/187/21
f 97/155/21 91/148/21 108/174/21 111/184/21
f 122/216/34 119/208/34 116/200/34 121/214/34
f 120/211/35 117/202/35 119/208/35 122/216/35
f 115/195/36 120/211/36 122/216/36 118/205/36
f 118/205/37 122/216/37 121/214/37 106/168/37
f 108/175/38 113/191/38 120/212/38 115/196/38
f 114/194/39 107/173/39 106/169/39 121/215/39
f 111/185/40 108/176/40 115/197/40 118/206/40
f 110/182/41 112/188/41 119/209/41 117/203/41
f 133/231/42 132/229/42 136/236/42 137/237/42
f 125/220/7 126/222/7 130/226/7 129/225/7
f 130/226/4 133/231/4 149/256/4 145/250/4
f 127/223/8 128/224/8 124/219/8 123/217/8
f 126/221/3 124/218/3 131/227/3 132/230/3
f 138/238/4 134/232/4 150/257/4 152/259/4
f 124/219/8 128/224/8 134/232/8 131/228/8
f 130/226/7 126/222/7 132/229/7 133/231/7
f 137/237/4 141/243/4 153/260/4 151/258/4
f 132/230/3 131/227/3 135/233/3 136/235/3
f 131/228/43 134/232/43 138/238/43 135/234/43
f 139/239/44 142/244/44 144/248/44 143/245/44
f 136/235/3 135/233/3 139/240/3 140/242/3
f 135/234/45 138/238/45 142/244/45 139/239/45
f 137/237/46 136/236/46 140/241/46 141/243/46
f 141/243/47 140/241/47 143/246/47 144/249/47
f 133/231/4 137/237/4 151/258/4 149/256/4
f 140/242/3 139/240/3 143/247/3
f 148/255/7 147/253/7 158/269/7 159/272/7
f 155/262/48 154/261/48 165/284/48 166/286/48
f 150/257/7 148/255/7 159/272/7 161/276/7
f 152/259/49 150/257/49 161/276/49 163/280/49
f 154/261/50 152/259/50 163/280/50 165/284/50
f 142/244/4 138/238/4 152/259/4 154/261/4
f 144/248/4 142/244/4 154/261/4 155/262/4
f 128/224/4 127/223/4 147/253/4 148/255/4
f 134/232/4 128/224/4 148/255/4 150/257/4
f 129/225/4 130/226/4 145/250/4 146/251/4
f 141/243/4 144/249/4 155/263/4 153/260/4
f 157/266/4 156/264/4 159/273/4 158/270/4
f 159/273/4 156/264/4 160/274/4 161/277/4
f 163/281/4 162/278/4 164/282/4 165/285/4
f 161/277/4 160/274/4 162/278/4 163/281/4
f 165/285/4 164/282/4 166/287/4
f 146/251/8 145/250/8 156/265/8 157/267/8
f 153/260/51 155/263/51 166/288/51 164/283/51
f 151/258/52 153/260/52 164/283/52 162/279/52
f 147/254/21 146/252/21 157/268/21 158/271/21
f 149/256/53 151/258/53 162/279/53 160/275/53
f 145/250/8 149/256/8 160/275/8 156/265/8
