# Blender 3.3.1
# www.blender.org
mtllib Road.mtl
o RoadObject
v -1.905946 0.148315 1.000000
v -1.905946 0.214604 1.000000
v -1.905946 0.148315 -1.000000
v -1.905946 0.214604 -1.000000
v -1.513339 0.148315 1.000000
v -1.513339 0.214604 1.000000
v -1.513339 0.148315 -1.000000
v -1.513339 0.214604 -1.000000
v -1.905946 0.192855 0.000000
v -1.905946 0.259145 0.000000
v -1.513339 0.192855 0.000000
v -1.513339 0.259145 0.000000
v -1.905946 0.259145 -0.804582
v -1.513339 0.192855 -0.804582
v -1.905946 0.192855 -0.804582
v -1.513339 0.259145 -0.804582
v -1.905946 0.192855 0.828028
v -1.513339 0.259145 0.828028
v -1.905946 0.259145 0.828028
v -1.513339 0.192855 0.828028
v -1.591141 0.214604 -1.000000
v -1.591141 0.214604 1.000000
v -1.591141 0.259145 0.000000
v -1.591141 0.259145 -0.804582
v -1.591141 0.259145 0.828028
v -1.828780 0.214604 1.000000
v -1.828780 0.214604 -1.000000
v -1.828780 0.259145 0.000000
v -1.828780 0.259145 -0.804582
v -1.828780 0.259145 0.828028
v -1.815905 0.194305 -1.000000
v -1.815905 0.238845 0.000000
v -1.815905 0.238845 -0.804582
v -1.815905 0.238845 0.828028
v -1.815905 0.194305 1.000000
v -1.602924 0.194305 -1.000000
v -1.602924 0.238845 0.000000
v -1.602924 0.238845 -0.804582
v -1.602924 0.238845 0.828028
v -1.602924 0.194305 1.000000
v -1.905946 0.111507 1.000000
v -1.905946 0.111507 -1.000000
v -1.513339 0.111507 1.000000
v -1.513339 0.111507 -1.000000
v -1.905946 0.111517 0.000000
v -1.513339 0.111517 0.000000
v -1.513339 0.111517 -0.804582
v -1.905946 0.111517 -0.804582
v -1.905946 0.111517 0.828028
v -1.513339 0.111517 0.828028
v -1.597032 0.111528 -1.000000
v -1.597032 0.111528 1.000000
v -1.822342 0.111528 1.000000
v -1.822342 0.111528 -1.000000
v -1.709656 -0.036724 0.942676
v -1.709656 -0.036724 -0.934861
v -1.709651 -0.036724 0.000000
v -1.647078 0.194305 1.000000
v -1.647078 0.194305 -1.000000
v -1.647078 0.238845 0.000000
v -1.647078 0.238845 -0.804582
v -1.647078 0.238845 0.828028
v -1.643743 0.111528 -1.000000
v -1.643743 0.111528 1.000000
v -1.772251 0.194305 1.000000
v -1.776162 0.111528 1.000000
v -1.680535 0.001610 -0.951704
v -1.680535 0.001610 0.957498
v -1.772251 0.194305 -1.000000
v -1.772251 0.238845 0.000000
v -1.772251 0.238845 -0.804582
v -1.772251 0.238845 0.828028
v -1.776162 0.111528 -1.000000
vn -1.0000 -0.0000 -0.0000
vn 1.0000 -0.0000 -0.0000
vn -0.0000 0.9681 0.2507
vn -0.0000 1.0000 -0.0000
vn -0.0000 0.9750 -0.2222
vn 0.8445 0.5356 -0.0000
vn 0.8382 0.5317 -0.1212
vn 0.8365 0.5305 0.1374
vn -0.8649 0.5020 -0.0000
vn -0.8593 0.4988 -0.1137
vn -0.8576 0.4978 0.1289
vn -0.0000 -0.0000 1.0000
vn -0.0000 -0.0000 -1.0000
vn -0.0001 -0.4022 -0.9156
vn 0.6026 -0.7981 -0.0000
vn -0.6027 -0.7980 -0.0000
vn 0.0001 -0.3606 0.9327
vn -0.0000 -0.4023 -0.9155
vn 0.6026 -0.7980 -0.0000
vn -0.0000 -0.3606 0.9327
vn -0.0001 -0.3606 0.9327
vn -0.6026 -0.7980 -0.0000
vn 0.0001 -0.4022 -0.9156
vt 0.044680 0.015153
vt 0.228651 0.621201
vt 0.292622 0.015119
vt 0.087169 0.015216
vt 0.228651 0.621201
vt 0.007678 0.621201
vt 0.213296 0.634358
vt 0.044680 0.454330
vt 0.087169 0.454393
vt 0.292622 0.671548
vt 0.213296 0.621201
vt 0.037207 0.550856
vt 0.244007 0.621201
vt 0.154109 0.454367
vt 0.195595 0.454295
vt 0.277266 0.015119
vt 0.244007 0.621201
vt 0.007678 0.707413
vt 0.259363 0.621201
vt 0.154109 0.015190
vt 0.195595 0.015119
vt 0.277266 0.671548
vt 0.037207 0.464643
vt 0.259363 0.621201
vt 0.073228 0.234784
vt 0.115717 0.234847
vt 0.292622 0.344568
vt 0.181983 0.234730
vt 0.223470 0.234659
vt 0.277266 0.344568
vt 0.292622 0.608644
vt 0.115717 0.411524
vt 0.181983 0.058053
vt 0.073228 0.411461
vt 0.223470 0.057982
vt 0.277266 0.608644
vt 0.073228 0.052959
vt 0.223470 0.416484
vt 0.277266 0.072797
vt 0.115717 0.053022
vt 0.292622 0.072797
vt 0.181983 0.416555
vt 0.238826 0.671548
vt 0.363498 0.454309
vt 0.037207 0.481728
vt 0.238826 0.015119
vt 0.363498 0.015133
vt 0.007678 0.690328
vt 0.238826 0.344568
vt 0.392046 0.234763
vt 0.238826 0.608644
vt 0.392046 0.411440
vt 0.238826 0.072797
vt 0.392046 0.052938
vt 0.330747 0.015119
vt 0.435277 0.015136
vt 0.007678 0.638145
vt 0.330747 0.671548
vt 0.435277 0.454312
vt 0.037207 0.533911
vt 0.330747 0.344568
vt 0.407402 0.234772
vt 0.330747 0.608644
vt 0.407402 0.411449
vt 0.330747 0.072797
vt 0.407402 0.052947
vt 0.453092 0.454295
vt 0.576996 0.999376
vt 0.052252 0.531084
vt 0.425217 0.234755
vt 0.576997 0.503539
vt 0.425217 0.411432
vt 0.576996 0.903988
vt 0.425217 0.052930
vt 0.576997 0.091422
vt 0.453092 0.015119
vt 0.576997 0.003957
vt 0.022588 0.640973
vt 0.346103 0.454295
vt 0.052252 0.484315
vt 0.874238 0.999376
vt 0.374652 0.234749
vt 0.874238 0.503539
vt 0.374652 0.411426
vt 0.874238 0.903988
vt 0.374651 0.052924
vt 0.874238 0.091422
vt 0.346103 0.015119
vt 0.022588 0.687741
vt 0.874238 0.003957
vt 0.021087 0.015119
vt 0.228651 0.621201
vt 0.083404 0.621201
vt 0.387642 0.171785
vt 0.213296 0.641664
vt 0.021087 0.454295
vt 0.387642 0.610964
vt 0.113614 0.550856
vt 0.244007 0.621201
vt 0.131073 0.454406
vt 0.083404 0.707413
vt 0.189987 0.610964
vt 0.259363 0.621201
vt 0.131073 0.015230
vt 0.113614 0.464643
vt 0.189987 0.171785
vt 0.021094 0.234707
vt 0.387647 0.391374
vt 0.131079 0.234818
vt 0.189991 0.391374
vt 0.131079 0.058141
vt 0.189991 0.214697
vt 0.021094 0.411384
vt 0.387647 0.568052
vt 0.021094 0.052882
vt 0.387647 0.209548
vt 0.131079 0.416643
vt 0.189991 0.573200
vt 0.113599 0.483022
vt 0.083388 0.689035
vt 0.083388 0.639559
vt 0.113599 0.532497
vt 0.197940 0.664304
vt 0.007678 0.598376
vt 0.205350 0.184373
vt 0.007678 0.186089
vt 0.205350 0.596660
vt 0.223470 0.507753
vt 0.007680 0.391374
vt 0.205347 0.391374
vt 0.022588 0.678045
vt 0.812615 0.003957
vt 0.052252 0.494011
vt 0.812615 0.999376
vt 0.812615 0.503539
vt 0.812615 0.903988
vt 0.812615 0.091422
vt 0.113599 0.493279
vt 0.083388 0.678778
vt 0.022588 0.650558
vt 0.637921 0.003957
vt 0.083388 0.649700
vt 0.195061 0.501358
vt 0.168320 0.670698
vt 0.052252 0.521498
vt 0.637920 0.999376
vt 0.637920 0.503539
vt 0.637920 0.903988
vt 0.637921 0.091422
vt 0.113599 0.522356
s 0
usemtl Material.013
f 15/34/1 13/32/1 4/9/1 3/8/1
f 20/42/2 18/38/2 6/15/2 5/14/2
f 30/65/3 19/41/3 2/3/3 26/55/3
f 29/63/4 13/31/4 10/27/4 28/61/4
f 14/33/2 16/35/2 12/29/2 11/28/2
f 17/37/1 19/40/1 10/26/1 9/25/1
f 7/20/2 8/21/2 16/35/2 14/33/2
f 27/58/5 4/10/5 13/31/5 29/63/5
f 9/25/1 10/26/1 13/32/1 15/34/1
f 1/1/1 2/4/1 19/40/1 17/37/1
f 28/61/4 10/27/4 19/41/4 30/65/4
f 11/28/2 12/29/2 18/38/2 20/42/2
f 12/30/4 23/49/4 25/53/4 18/39/4
f 8/22/5 21/43/5 24/51/5 16/36/5
f 16/36/4 24/51/4 23/49/4 12/30/4
f 18/39/3 25/53/3 22/46/3 6/16/3
f 32/70/6 28/62/6 30/66/6 34/74/6
f 31/67/7 27/59/7 29/64/7 33/72/7
f 33/72/6 29/64/6 28/62/6 32/70/6
f 34/74/8 30/66/8 26/56/8 35/76/8
f 72/149/3 34/75/3 35/77/3 65/141/3
f 71/148/4 33/73/4 32/71/4 70/147/4
f 69/146/5 31/68/5 33/73/5 71/148/5
f 70/147/4 32/71/4 34/75/4 72/149/4
f 23/50/9 37/82/9 39/86/9 25/54/9
f 21/44/10 36/79/10 38/84/10 24/52/10
f 24/52/9 38/84/9 37/82/9 23/50/9
f 25/54/11 39/86/11 40/88/11 22/47/11
f 1/1/1 17/37/1 49/115/1 41/91/1
f 5/13/4 6/17/4 43/99/4
f 2/5/12 1/2/12 41/92/12
f 65/140/12 35/78/12 53/121/12 66/142/12
f 36/80/13 21/45/13 51/119/13
f 26/57/12 2/6/12 41/93/12 53/121/12
f 17/37/1 9/25/1 45/107/1 49/115/1
f 6/18/12 22/48/12 52/120/12 43/101/12
f 9/25/1 15/34/1 48/113/1 45/107/1
f 22/48/12 40/89/12 52/120/12
f 35/78/12 26/57/12 53/121/12
f 3/7/4 4/11/4 42/95/4
f 14/33/2 11/28/2 46/109/2 47/111/2
f 4/12/13 27/60/13 54/122/13 42/98/13
f 21/45/13 8/23/13 44/105/13 51/119/13
f 15/34/1 3/8/1 42/96/1 48/113/1
f 27/60/13 31/69/13 54/122/13
f 11/28/2 20/42/2 50/117/2 46/109/2
f 20/42/2 5/14/2 43/100/2 50/117/2
f 8/24/4 7/19/4 44/103/4
f 7/20/2 14/33/2 47/111/2 44/104/2
f 59/133/13 36/80/13 51/119/13 63/138/13
f 51/119/14 44/105/14 56/128/14 67/143/14
f 44/106/15 47/112/15 56/126/15
f 45/108/16 48/114/16 56/127/16 57/130/16
f 53/121/17 41/93/17 55/123/17
f 73/150/18 63/138/18 51/119/18 67/143/18
f 46/110/19 50/118/19 55/124/19 57/129/19
f 68/144/20 66/142/20 53/121/20 55/123/20
f 47/112/19 46/110/19 57/129/19 56/126/19
f 43/101/21 52/120/21 68/144/21 55/123/21
f 48/114/22 42/97/22 56/127/22
f 49/116/16 45/108/16 57/130/16 55/125/16
f 42/98/23 54/122/23 56/128/23
f 50/118/15 43/102/15 55/124/15
f 41/94/22 49/116/22 55/125/22
f 69/145/13 59/133/13 63/138/13 73/150/13
f 40/89/12 58/131/12 64/139/12 52/120/12
f 37/83/4 60/135/4 62/137/4 39/87/4
f 36/81/5 59/134/5 61/136/5 38/85/5
f 38/85/4 61/136/4 60/135/4 37/83/4
f 39/87/3 62/137/3 58/132/3 40/90/3
f 31/69/13 69/145/13 73/150/13 54/122/13
f 52/120/20 64/139/20 66/142/20 68/144/20
f 54/122/18 73/150/18 67/143/18 56/128/18
f 58/131/12 65/140/12 66/142/12 64/139/12
f 60/135/4 70/147/4 72/149/4 62/137/4
f 59/134/5 69/146/5 71/148/5 61/136/5
f 61/136/4 71/148/4 70/147/4 60/135/4
f 62/137/3 72/149/3 65/141/3 58/132/3
